<svg width="182" height="143" viewBox="0 0 182 143" fill="none" xmlns="http://www.w3.org/2000/svg">
<path d="M24.7472 117.706L22.1369 119.185L24.7472 117.706ZM163.604 111.843L161.02 113.367L163.604 111.843ZM182 143L181.849 108.359L151.925 125.811L182 143ZM3.12646 13.4881C3.98201 13.1415 4.87423 12.7988 5.80059 12.4621L3.75051 6.82315C2.75888 7.18367 1.79895 7.55221 0.873544 7.92712L3.12646 13.4881ZM11.2842 10.6626C13.0811 10.1315 14.9617 9.62913 16.9124 9.16469L15.5226 3.32785C13.4693 3.81675 11.485 4.34668 9.58355 4.90869L11.2842 10.6626ZM22.5937 7.96202C24.4704 7.61313 26.3928 7.30278 28.3506 7.03762L27.5453 1.0919C25.4883 1.3705 23.4688 1.69653 21.4971 2.06309L22.5937 7.96202ZM34.1311 6.40025C36.0458 6.23757 37.9826 6.1215 39.9328 6.05757L39.7362 0.060792C37.6785 0.128243 35.6379 0.25061 33.6231 0.421795L34.1311 6.40025ZM45.7382 6.02598C47.6643 6.06941 49.594 6.16797 51.5194 6.32667L52.0122 0.346942C49.9627 0.178013 47.9136 0.073504 45.8734 0.0275006L45.7382 6.02598ZM57.254 6.98507C59.1553 7.26745 61.0434 7.61424 62.9105 8.0302L64.2152 2.17377C62.2012 1.72509 60.1717 1.35258 58.1354 1.05016L57.254 6.98507ZM68.4494 9.4927C70.2732 10.0538 72.0673 10.689 73.8245 11.403L76.0831 5.84437C74.1563 5.06145 72.1968 4.36809 70.2138 3.75799L68.4494 9.4927ZM78.9782 13.7861C80.6487 14.6594 82.2753 15.6156 83.8509 16.6595L87.1646 11.6575C85.4103 10.4953 83.605 9.43448 81.758 8.4689L78.9782 13.7861ZM88.3728 20.0207C89.7998 21.2084 91.1735 22.4845 92.4874 23.8539L96.8169 19.6999C95.3454 18.1663 93.8074 16.7377 92.2112 15.4091L88.3728 20.0207ZM96.1522 28.1279C97.2734 29.5926 98.3374 31.1461 99.3381 32.7933L104.466 29.678C103.354 27.8483 102.169 26.1171 100.917 24.4808L96.1522 28.1279ZM102.034 37.7879C102.828 39.4503 103.565 41.195 104.24 43.0256L109.869 40.9477C109.131 38.949 108.323 37.035 107.449 35.2033L102.034 37.7879ZM105.993 48.4667C106.491 50.2588 106.935 52.1234 107.323 54.063L113.207 52.8864C112.791 50.8069 112.312 48.7988 111.774 46.8603L105.993 48.4667ZM108.266 59.7537C108.512 61.6049 108.71 63.5173 108.858 65.4925L114.842 65.0443C114.685 62.9584 114.475 60.9316 114.213 58.9627L108.266 59.7537ZM109.141 71.2782C109.164 72.2551 109.176 73.2459 109.176 74.2508H115.176C115.176 73.199 115.163 72.1605 115.139 71.1352L109.141 71.2782ZM109.176 74.2508C109.176 75.2828 109.163 76.2988 109.138 77.299L115.137 77.4477C115.163 76.3971 115.176 75.3315 115.176 74.2508H109.176ZM108.835 83.2438C108.675 85.2821 108.461 87.2469 108.195 89.1401L114.137 89.9739C114.42 87.9553 114.648 85.8688 114.817 83.713L108.835 83.2438ZM107.174 94.9612C106.75 96.9519 106.265 98.8515 105.723 100.663L111.472 102.382C112.062 100.41 112.586 98.353 113.042 96.2099L107.174 94.9612ZM103.796 106.183C103.045 108.044 102.228 109.795 101.351 111.44L106.647 114.261C107.626 112.423 108.533 110.48 109.36 108.428L103.796 106.183ZM98.3608 116.341C97.2311 117.963 96.0342 119.456 94.7807 120.828L99.21 124.875C100.644 123.306 102.005 121.606 103.284 119.771L98.3608 116.341ZM90.6571 124.755C89.167 125.985 87.6181 127.082 86.0226 128.051L89.1386 133.179C90.9776 132.061 92.7623 130.798 94.4777 129.381L90.6571 124.755ZM80.9621 130.649C79.1997 131.401 77.397 132.022 75.5679 132.519L77.1413 138.309C79.228 137.742 81.292 137.031 83.316 136.168L80.9621 130.649ZM69.9535 133.654C68.0473 133.912 66.1292 134.049 64.2147 134.071L64.2834 140.07C66.437 140.046 68.6017 139.892 70.76 139.599L69.9535 133.654ZM58.4513 133.795C56.5233 133.589 54.6183 133.272 52.7533 132.852L51.4362 138.706C53.523 139.175 55.6551 139.53 57.8145 139.761L58.4513 133.795ZM47.1975 131.26C45.3554 130.614 43.5795 129.867 41.8891 129.03L39.2275 134.407C41.1418 135.355 43.1433 136.196 45.2109 136.922L47.1975 131.26ZM36.9455 126.163C35.3364 125.076 33.855 123.901 32.5215 122.656L28.4263 127.041C30.0037 128.514 31.7335 129.882 33.5855 131.134L36.9455 126.163ZM28.8339 118.516C28.29 117.767 27.7971 117.003 27.3575 116.228L22.1369 119.185C22.6924 120.165 23.3085 121.118 23.9792 122.042L28.8339 118.516ZM27.3575 116.228C26.8735 115.373 26.4181 114.516 25.9907 113.657L20.6185 116.328C21.0942 117.285 21.6001 118.237 22.1369 119.185L27.3575 116.228ZM23.7228 108.386C23.0565 106.561 22.509 104.732 22.0754 102.906L16.2378 104.293C16.7257 106.347 17.3405 108.4 18.0867 110.444L23.7228 108.386ZM21.0917 97.2805C20.8757 95.3695 20.78 93.4677 20.7991 91.5828L14.7995 91.5219C14.7779 93.651 14.886 95.7981 15.1296 97.9542L21.0917 97.2805ZM21.2079 85.8931C21.4619 83.9982 21.8315 82.1287 22.3112 80.2932L16.5062 78.7762C15.9651 80.8464 15.5479 82.9563 15.2611 85.096L21.2079 85.8931ZM24.088 74.8637C24.7896 73.0898 25.5974 71.3592 26.5057 69.6808L21.2289 66.8251C20.2076 68.7122 19.2986 70.6594 18.5085 72.657L24.088 74.8637ZM29.522 64.8175C30.6193 63.2608 31.8102 61.7649 33.0888 60.3386L28.6211 56.3336C27.1867 57.9337 25.8501 59.6126 24.618 61.3605L29.522 64.8175ZM37.1531 56.3028C38.5772 55.0439 40.0805 53.8611 41.6576 52.7626L38.2282 47.8392C36.461 49.0702 34.7759 50.396 33.1792 51.8074L37.1531 56.3028ZM46.5407 49.7628C48.2097 48.8651 49.9435 48.0548 51.737 47.3395L49.5145 41.7664C47.5083 42.5664 45.5677 43.4733 43.6985 44.4787L46.5407 49.7628ZM57.1783 45.5177C59.0011 45.0191 60.8747 44.6142 62.795 44.31L61.8562 38.3839C59.7188 38.7225 57.63 39.1737 55.5951 39.7304L57.1783 45.5177ZM68.5188 43.7149C70.4039 43.6192 72.3275 43.6182 74.286 43.7181L74.5916 37.7259C72.4313 37.6157 70.3041 37.6165 68.2144 37.7227L68.5188 43.7149ZM80.0405 44.2932C81.9126 44.5708 83.8124 44.94 85.7372 45.4058L87.1486 39.5742C85.0509 39.0665 82.9738 38.6625 80.9207 38.3581L80.0405 44.2932ZM91.3432 47.0179C93.1566 47.6217 94.9891 48.3116 96.8383 49.0916L99.1701 43.5632C97.1803 42.7239 95.2023 41.979 93.2387 41.3252L91.3432 47.0179ZM102.133 51.5526C103.832 52.4154 105.543 53.355 107.264 54.3745L110.322 49.2122C108.492 48.128 106.667 47.1257 104.85 46.203L102.133 51.5526ZM112.257 57.5402C113.861 58.6249 115.473 59.7799 117.09 61.0076L120.718 56.2286C119.015 54.9361 117.315 53.717 115.618 52.5696L112.257 57.5402ZM121.676 64.6739C123.167 65.9258 124.661 67.2404 126.157 68.6196L130.223 64.2077C128.661 62.7676 127.098 61.3921 125.536 60.0798L121.676 64.6739ZM130.439 72.7383C131.81 74.1119 133.181 75.5406 134.553 77.0258L138.961 72.9548C137.538 71.4142 136.113 69.9298 134.687 68.5007L130.439 72.7383ZM138.555 81.5199C139.817 82.9886 141.078 84.5063 142.339 86.0738L147.015 82.3142C145.714 80.6968 144.411 79.129 143.106 77.6097L138.555 81.5199ZM146.059 90.8516C147.226 92.3994 148.392 93.9911 149.556 95.6274L154.445 92.1497C153.25 90.4686 152.05 88.8316 150.848 87.2382L146.059 90.8516ZM153 100.611C154.088 102.23 155.174 103.89 156.256 105.589L161.317 102.366C160.209 100.626 159.096 98.9257 157.981 97.2652L153 100.611ZM159.437 110.715C159.965 111.589 160.493 112.473 161.02 113.367L166.189 110.32C165.651 109.407 165.111 108.503 164.571 107.61L159.437 110.715ZM161.02 113.367C161.561 114.285 162.073 115.154 162.558 115.976L167.726 112.927C167.242 112.106 166.73 111.238 166.189 110.32L161.02 113.367ZM165.629 121.176C166.911 123.346 167.91 125.03 168.705 126.368L173.863 123.304C173.071 121.97 172.075 120.29 170.794 118.123L165.629 121.176ZM171.797 131.544C172.552 132.801 173.104 133.722 174.847 136.699L180.025 133.667C178.272 130.674 177.708 129.732 176.94 128.453L171.797 131.544Z" fill="black"/>
</svg>
