<svg width="208" height="151" viewBox="0 0 208 151" fill="none" xmlns="http://www.w3.org/2000/svg">
<path d="M84.0552 37.2303L83.2809 35.9455L84.0552 37.2303ZM11.2163 150.578L22.7341 137.643L5.77229 134.136L11.2163 150.578ZM203.793 1.24835C203.421 2.21936 203.052 3.17586 202.684 4.11801L205.479 5.20808C205.849 4.25993 206.221 3.29758 206.595 2.32083L203.793 1.24835ZM200.504 9.60024C199.749 11.4617 199.003 13.2613 198.266 15.0007L201.028 16.1715C201.772 14.4171 202.524 12.6031 203.284 10.7279L200.504 9.60024ZM195.919 20.4021C195.089 22.261 194.271 24.042 193.464 25.7476L196.176 27.0309C196.993 25.3038 197.821 23.5024 198.658 21.6242L195.919 20.4021ZM190.932 30.9221C189.991 32.7795 189.064 34.5317 188.152 36.1833L190.778 37.6336C191.709 35.9485 192.652 34.1648 193.608 32.2784L190.932 30.9221ZM185.227 41.2195C184.154 42.9683 183.102 44.574 182.07 46.0452L184.526 47.7685C185.597 46.2417 186.683 44.5838 187.784 42.7879L185.227 41.2195ZM178.573 50.6119C177.219 52.2163 175.903 53.5819 174.621 54.7334L176.626 56.9649C178.024 55.7088 179.436 54.2413 180.866 52.5469L178.573 50.6119ZM170.148 57.9992C168.414 58.9697 166.745 59.5563 165.126 59.8365L165.637 62.7926C167.618 62.4498 169.607 61.7398 171.613 60.6171L170.148 57.9992ZM159.831 59.7323C158.12 59.3859 156.397 58.7534 154.641 57.8829L153.309 60.5708C155.242 61.5293 157.215 62.2633 159.235 62.6726L159.831 59.7323ZM149.778 54.9718C148.249 53.9193 146.703 52.7461 145.127 51.4908L143.258 53.8373C144.866 55.1186 146.471 56.3378 148.078 57.4433L149.778 54.9718ZM140.595 47.7677C139.107 46.5232 137.586 45.2434 136.037 43.9744L134.136 46.2947C135.669 47.5514 137.174 48.8171 138.67 50.0689L140.595 47.7677ZM131.36 40.275C129.765 39.0707 128.13 37.9038 126.448 36.8099L124.812 39.3247C126.423 40.3721 128 41.4968 129.551 42.6689L131.36 40.275ZM121.216 33.7606C119.405 32.8341 117.536 32.0177 115.603 31.3498L114.623 34.1854C116.407 34.8018 118.147 35.5604 119.85 36.4314L121.216 33.7606ZM109.639 29.8361C107.648 29.5142 105.596 29.3666 103.478 29.4256L103.562 32.4245C105.485 32.3709 107.348 32.5048 109.16 32.7976L109.639 29.8361ZM97.3839 30.1553C95.4758 30.557 93.5228 31.1288 91.5214 31.8879L92.5853 34.6929C94.4481 33.9863 96.2522 33.4593 98.0019 33.091L97.3839 30.1553ZM85.9937 34.4074C85.0988 34.8826 84.1946 35.3949 83.2809 35.9455L84.8294 38.515C85.6983 37.9914 86.5553 37.5059 87.4007 37.057L85.9937 34.4074ZM83.2809 35.9455C82.4414 36.4515 81.611 36.9659 80.7896 37.4885L82.3999 40.0197C83.201 39.51 84.0108 39.0083 84.8294 38.515L83.2809 35.9455ZM75.9428 40.737C74.3441 41.8642 72.7819 43.0224 71.2554 44.2086L73.0962 46.5775C74.5868 45.4192 76.1116 44.2887 77.6716 43.1887L75.9428 40.737ZM66.7334 47.8901C65.2462 49.1574 63.7956 50.4509 62.3807 51.7674L64.4244 53.9637C65.808 52.6762 67.226 51.4118 68.6792 50.1735L66.7334 47.8901ZM58.1999 55.8264C56.8278 57.2155 55.492 58.6254 54.1919 60.0529L56.4098 62.073C57.6834 60.6747 58.9913 59.2942 60.3342 57.9346L58.1999 55.8264ZM50.3562 64.4334C49.0985 65.927 47.8772 67.4354 46.6912 68.9553L49.0564 70.8008C50.2201 69.3095 51.418 67.8301 52.651 66.3658L50.3562 64.4334ZM43.1945 73.6065C42.0483 75.1887 40.9385 76.7794 39.864 78.3745L42.3522 80.0505C43.4081 78.4828 44.4984 76.9203 45.624 75.3665L43.1945 73.6065ZM36.6952 83.2505C35.6551 84.9093 34.6519 86.5689 33.6845 88.225L36.2749 89.7382C37.227 88.1083 38.2139 86.4756 39.2368 84.8442L36.6952 83.2505ZM30.8284 93.2894C29.889 95.0149 28.9878 96.7319 28.1235 98.4356L30.7989 99.7929C31.6505 98.1142 32.5382 96.4229 33.4632 94.7238L30.8284 93.2894ZM25.5669 103.656C24.7235 105.441 23.9206 107.204 23.1567 108.942L25.9029 110.149C26.6562 108.436 27.4479 106.697 28.2793 104.938L25.5669 103.656ZM20.8922 114.283C20.1414 116.12 19.4355 117.919 18.7726 119.67L21.5782 120.732C22.2323 119.004 22.9287 117.23 23.6693 115.417L20.8922 114.283ZM16.7794 125.148C16.113 127.056 15.5017 128.889 14.9423 130.635L17.7993 131.551C18.351 129.828 18.9541 128.02 19.6116 126.137L16.7794 125.148ZM13.2378 136.21C12.6383 138.271 12.1262 140.149 11.6938 141.814L14.5975 142.568C15.023 140.929 15.5274 139.079 16.1184 137.048L13.2378 136.21ZM84.0552 37.2303L82.5067 34.6608L84.0552 37.2303ZM11.2163 150.578L34.2519 124.707L0.328298 117.693L11.2163 150.578ZM202.392 0.712118C202.021 1.68026 201.653 2.63382 201.287 3.57298L206.877 5.75311C207.247 4.80197 207.62 3.83668 207.995 2.85707L202.392 0.712118ZM199.114 9.03642C198.362 10.891 197.619 12.6834 196.885 14.4152L202.409 16.7569C203.156 14.995 203.911 13.1737 204.674 11.2917L199.114 9.03642ZM194.549 19.791C193.724 21.6404 192.91 23.4111 192.108 25.1059L197.532 27.6725C198.354 25.9347 199.186 24.123 200.028 22.2352L194.549 19.791ZM189.594 30.2439C188.66 32.0868 187.742 33.8232 186.839 35.4581L192.092 38.3587C193.031 36.657 193.982 34.8575 194.946 32.9565L189.594 30.2439ZM183.948 40.4352C182.89 42.1605 181.855 43.7402 180.842 45.1836L185.753 48.6301C186.844 47.0755 187.947 45.3916 189.063 43.5721L183.948 40.4352ZM177.427 49.6444C176.111 51.2038 174.842 52.5184 173.619 53.6176L177.629 58.0806C179.085 56.7722 180.544 55.2538 182.012 53.5145L177.427 49.6444ZM169.416 56.6902C167.817 57.5846 166.309 58.1095 164.87 58.3585L165.893 64.2706C168.054 63.8966 170.204 63.1249 172.346 61.9261L169.416 56.6902ZM160.129 58.2622C158.573 57.9472 156.975 57.3654 155.307 56.539L152.643 61.9147C154.665 62.9172 156.762 63.7021 158.937 64.1428L160.129 58.2622ZM150.629 53.7361C149.137 52.71 147.621 51.5598 146.061 50.3176L142.323 55.0105C143.948 56.3049 145.583 57.5471 147.228 58.6791L150.629 53.7361ZM141.557 46.617C140.074 45.3763 138.544 44.0894 136.988 42.8143L133.185 47.4549C134.711 48.7054 136.207 49.964 137.708 51.2196L141.557 46.617ZM132.264 39.0781C130.648 37.8576 128.983 36.6696 127.266 35.5526L123.994 40.5821C125.569 41.6063 127.117 42.7099 128.647 43.8658L132.264 39.0781ZM121.899 32.4252C120.034 31.4709 118.1 30.6256 116.093 29.932L114.133 35.6032C115.843 36.1938 117.518 36.9235 119.167 37.7668L121.899 32.4252ZM109.878 28.3553C107.798 28.019 105.652 27.8645 103.436 27.9262L103.604 33.9239C105.429 33.873 107.199 34 108.92 34.2784L109.878 28.3553ZM97.0749 28.6875C95.0876 29.1058 93.0601 29.7 90.9894 30.4854L93.1173 36.0954C94.9108 35.4151 96.6405 34.9104 98.3109 34.5588L97.0749 28.6875ZM85.2902 33.0826C84.3706 33.5709 83.4428 34.0966 82.5067 34.6608L85.6036 39.7998C86.4501 39.2896 87.2835 38.8176 88.1042 38.3818L85.2902 33.0826ZM82.5067 34.6608C81.6567 35.173 80.816 35.6938 79.9844 36.2229L83.205 41.2853C83.996 40.782 84.7955 40.2868 85.6036 39.7998L82.5067 34.6608ZM75.0784 39.5111C73.4604 40.652 71.8795 41.824 70.335 43.0242L74.0166 47.7619C75.4892 46.6176 76.9954 45.501 78.536 44.4146L75.0784 39.5111ZM65.7605 46.7484C64.2563 48.0302 62.7894 49.3382 61.3589 50.6693L65.4462 55.0618C66.8142 53.7889 68.2159 52.539 69.6521 51.3152L65.7605 46.7484ZM57.1328 54.7722C55.746 56.1761 54.3964 57.6008 53.0829 59.0428L57.5188 63.083C58.7791 61.6993 60.073 60.3335 61.4014 58.9887L57.1328 54.7722ZM49.2088 63.4673C47.9388 64.9754 46.7057 66.4984 45.5087 68.0325L50.239 71.7236C51.3915 70.2466 52.5777 68.7816 53.7984 67.332L49.2088 63.4673ZM41.9798 72.7265C40.8233 74.323 39.7036 75.9276 38.6199 77.5365L43.5963 80.8885C44.643 79.3346 45.7235 77.786 46.8388 76.2465L41.9798 72.7265ZM35.4243 82.4537C34.3756 84.1261 33.3643 85.7992 32.3892 87.4684L37.5701 90.4948C38.5145 88.878 39.4934 87.2587 40.5077 85.641L35.4243 82.4537ZM29.5109 92.5722C28.5645 94.3108 27.6565 96.0407 26.7858 97.757L32.1366 100.472C32.9819 98.8054 33.8628 97.127 34.7807 95.441L29.5109 92.5722ZM24.2107 103.015C23.3613 104.812 22.5528 106.589 21.7836 108.338L27.276 110.753C28.0241 109.052 28.8101 107.325 29.6355 105.579L24.2107 103.015ZM19.5036 113.715C18.7477 115.565 18.0371 117.376 17.3697 119.139L22.9811 121.263C23.6307 119.547 24.3224 117.785 25.0579 115.984L19.5036 113.715ZM15.3632 124.654C14.6924 126.574 14.077 128.42 13.5139 130.177L19.2277 132.008C19.7757 130.298 20.3747 128.502 21.0277 126.632L15.3632 124.654ZM11.7976 135.791C11.1938 137.866 10.6778 139.758 10.2419 141.437L16.0494 142.945C16.4714 141.32 16.972 139.484 17.5587 137.467L11.7976 135.791Z" fill="black"/>
</svg>
